<mxfile host="app.diagrams.net" modified="2021-06-04T08:54:35.216Z" agent="5.0 (Macintosh; Intel Mac OS X 10_15_7) AppleWebKit/537.36 (KHTML, like Gecko) Chrome/90.0.4430.212 Safari/537.36" etag="fLUoO9mxC5B9BtgSy-DB" version="14.7.5" type="github">
  <diagram id="kgpKYQtTHZ0yAKxKKP6v" name="Page-1">
    <mxGraphModel dx="946" dy="621" grid="1" gridSize="10" guides="1" tooltips="1" connect="1" arrows="1" fold="1" page="1" pageScale="1" pageWidth="850" pageHeight="1100" background="#F1FAEE" math="0" shadow="0">
      <root>
        <mxCell id="0" />
        <mxCell id="1" parent="0" />
        <mxCell id="Gz4G_NNeVK80VPYpn5j1-1" value="Android app" style="shape=umlLifeline;perimeter=lifelinePerimeter;container=1;collapsible=0;recursiveResize=0;shadow=0;strokeWidth=1;fillColor=#A8DADC;strokeColor=#457B9D;fontColor=#1D3557;" vertex="1" parent="1">
          <mxGeometry x="120" y="40" width="100" height="1050" as="geometry" />
        </mxCell>
        <mxCell id="Gz4G_NNeVK80VPYpn5j1-2" value="createEngine(Context, QNRTCSetting)" style="html=1;verticalAlign=bottom;endArrow=block;strokeColor=#457B9D;fontColor=#1D3557;labelBackgroundColor=#F1FAEE;" edge="1" parent="Gz4G_NNeVK80VPYpn5j1-1" target="Gz4G_NNeVK80VPYpn5j1-8">
          <mxGeometry width="80" relative="1" as="geometry">
            <mxPoint x="50" y="100" as="sourcePoint" />
            <mxPoint x="230" y="97" as="targetPoint" />
          </mxGeometry>
        </mxCell>
        <mxCell id="Gz4G_NNeVK80VPYpn5j1-3" value="destroy" style="html=1;verticalAlign=bottom;endArrow=block;strokeColor=#457B9D;fontColor=#1D3557;labelBackgroundColor=#F1FAEE;" edge="1" parent="Gz4G_NNeVK80VPYpn5j1-1" target="Gz4G_NNeVK80VPYpn5j1-8">
          <mxGeometry width="80" relative="1" as="geometry">
            <mxPoint x="50" y="1010" as="sourcePoint" />
            <mxPoint x="130" y="1010" as="targetPoint" />
          </mxGeometry>
        </mxCell>
        <mxCell id="Gz4G_NNeVK80VPYpn5j1-4" value="" style="html=1;points=[];perimeter=orthogonalPerimeter;fillColor=#A8DADC;strokeColor=#457B9D;fontColor=#1D3557;" vertex="1" parent="Gz4G_NNeVK80VPYpn5j1-1">
          <mxGeometry x="45" y="180" width="10" height="80" as="geometry" />
        </mxCell>
        <mxCell id="Gz4G_NNeVK80VPYpn5j1-5" value="" style="html=1;points=[];perimeter=orthogonalPerimeter;fillColor=#A8DADC;strokeColor=#457B9D;fontColor=#1D3557;" vertex="1" parent="Gz4G_NNeVK80VPYpn5j1-1">
          <mxGeometry x="45" y="440" width="10" height="80" as="geometry" />
        </mxCell>
        <mxCell id="Gz4G_NNeVK80VPYpn5j1-6" value="" style="html=1;points=[];perimeter=orthogonalPerimeter;fillColor=#A8DADC;strokeColor=#457B9D;fontColor=#1D3557;" vertex="1" parent="Gz4G_NNeVK80VPYpn5j1-1">
          <mxGeometry x="45" y="710" width="10" height="80" as="geometry" />
        </mxCell>
        <mxCell id="Gz4G_NNeVK80VPYpn5j1-7" value="" style="html=1;points=[];perimeter=orthogonalPerimeter;fillColor=#A8DADC;strokeColor=#457B9D;fontColor=#1D3557;" vertex="1" parent="Gz4G_NNeVK80VPYpn5j1-1">
          <mxGeometry x="45" y="870" width="10" height="80" as="geometry" />
        </mxCell>
        <mxCell id="Gz4G_NNeVK80VPYpn5j1-8" value="QNRTC SDK" style="shape=umlLifeline;perimeter=lifelinePerimeter;container=1;collapsible=0;recursiveResize=0;shadow=0;strokeWidth=1;fillColor=#A8DADC;strokeColor=#457B9D;fontColor=#1D3557;" vertex="1" parent="1">
          <mxGeometry x="400" y="40" width="100" height="1060" as="geometry" />
        </mxCell>
        <mxCell id="Gz4G_NNeVK80VPYpn5j1-9" value="其他用户加入" style="text;align=center;fontStyle=1;verticalAlign=middle;spacingLeft=3;spacingRight=3;strokeColor=none;rotatable=0;points=[[0,0.5],[1,0.5]];portConstraint=eastwest;fontColor=#1D3557;" vertex="1" parent="Gz4G_NNeVK80VPYpn5j1-8">
          <mxGeometry x="10" y="540" width="80" height="26" as="geometry" />
        </mxCell>
        <mxCell id="Gz4G_NNeVK80VPYpn5j1-10" value="" style="html=1;points=[];perimeter=orthogonalPerimeter;fillColor=#A8DADC;strokeColor=#457B9D;fontColor=#1D3557;" vertex="1" parent="Gz4G_NNeVK80VPYpn5j1-8">
          <mxGeometry x="45" y="180" width="10" height="80" as="geometry" />
        </mxCell>
        <mxCell id="Gz4G_NNeVK80VPYpn5j1-11" value="" style="html=1;points=[];perimeter=orthogonalPerimeter;fillColor=#A8DADC;strokeColor=#457B9D;fontColor=#1D3557;" vertex="1" parent="Gz4G_NNeVK80VPYpn5j1-8">
          <mxGeometry x="45" y="440" width="10" height="80" as="geometry" />
        </mxCell>
        <mxCell id="Gz4G_NNeVK80VPYpn5j1-12" value="" style="html=1;points=[];perimeter=orthogonalPerimeter;fillColor=#A8DADC;strokeColor=#457B9D;fontColor=#1D3557;" vertex="1" parent="Gz4G_NNeVK80VPYpn5j1-8">
          <mxGeometry x="45" y="710" width="10" height="80" as="geometry" />
        </mxCell>
        <mxCell id="Gz4G_NNeVK80VPYpn5j1-13" value="" style="html=1;points=[];perimeter=orthogonalPerimeter;fillColor=#A8DADC;strokeColor=#457B9D;fontColor=#1D3557;" vertex="1" parent="Gz4G_NNeVK80VPYpn5j1-8">
          <mxGeometry x="45" y="870" width="10" height="80" as="geometry" />
        </mxCell>
        <mxCell id="Gz4G_NNeVK80VPYpn5j1-14" value="RTN" style="shape=umlLifeline;perimeter=lifelinePerimeter;container=1;collapsible=0;recursiveResize=0;shadow=0;strokeWidth=1;fillColor=#A8DADC;strokeColor=#457B9D;fontColor=#1D3557;" vertex="1" parent="1">
          <mxGeometry x="670" y="40" width="100" height="1060" as="geometry" />
        </mxCell>
        <mxCell id="Gz4G_NNeVK80VPYpn5j1-15" value="" style="html=1;points=[];perimeter=orthogonalPerimeter;fillColor=#A8DADC;strokeColor=#457B9D;fontColor=#1D3557;" vertex="1" parent="Gz4G_NNeVK80VPYpn5j1-14">
          <mxGeometry x="45" y="190" width="10" height="50" as="geometry" />
        </mxCell>
        <mxCell id="Gz4G_NNeVK80VPYpn5j1-16" value="" style="html=1;points=[];perimeter=orthogonalPerimeter;fillColor=#A8DADC;strokeColor=#457B9D;fontColor=#1D3557;" vertex="1" parent="Gz4G_NNeVK80VPYpn5j1-14">
          <mxGeometry x="45" y="450" width="10" height="50" as="geometry" />
        </mxCell>
        <mxCell id="Gz4G_NNeVK80VPYpn5j1-17" value="" style="html=1;points=[];perimeter=orthogonalPerimeter;fillColor=#A8DADC;strokeColor=#457B9D;fontColor=#1D3557;" vertex="1" parent="Gz4G_NNeVK80VPYpn5j1-14">
          <mxGeometry x="45" y="720" width="10" height="50" as="geometry" />
        </mxCell>
        <mxCell id="Gz4G_NNeVK80VPYpn5j1-18" value="" style="html=1;points=[];perimeter=orthogonalPerimeter;fillColor=#A8DADC;strokeColor=#457B9D;fontColor=#1D3557;" vertex="1" parent="Gz4G_NNeVK80VPYpn5j1-14">
          <mxGeometry x="45" y="890" width="10" height="30" as="geometry" />
        </mxCell>
        <mxCell id="Gz4G_NNeVK80VPYpn5j1-19" value="" style="line;strokeWidth=1;fillColor=none;align=left;verticalAlign=middle;spacingTop=-1;spacingLeft=3;spacingRight=3;rotatable=0;labelPosition=right;points=[];portConstraint=eastwest;strokeColor=#457B9D;fontColor=#1D3557;labelBackgroundColor=#F1FAEE;" vertex="1" parent="1">
          <mxGeometry x="90" y="190" width="750" height="8" as="geometry" />
        </mxCell>
        <mxCell id="Gz4G_NNeVK80VPYpn5j1-20" value="初始化&lt;br&gt;QNRTCEngine" style="whiteSpace=wrap;html=1;fillColor=#A8DADC;strokeColor=#457B9D;fontColor=#1D3557;" vertex="1" parent="1">
          <mxGeometry x="40" y="120" width="100" height="40" as="geometry" />
        </mxCell>
        <mxCell id="Gz4G_NNeVK80VPYpn5j1-21" value="创建本地 Track以及预览&lt;br&gt;(也可在加入房间后创建)" style="whiteSpace=wrap;html=1;fillColor=#A8DADC;strokeColor=#457B9D;fontColor=#1D3557;" vertex="1" parent="1">
          <mxGeometry x="40" y="350" width="100" height="80" as="geometry" />
        </mxCell>
        <mxCell id="Gz4G_NNeVK80VPYpn5j1-22" value="&lt;div style=&quot;text-align: left&quot;&gt;createTrackInfoBuilder().setSourceType(AUDIO).build()&lt;/div&gt;" style="html=1;verticalAlign=bottom;endArrow=block;strokeColor=#457B9D;fontColor=#1D3557;labelBackgroundColor=#F1FAEE;" edge="1" parent="1">
          <mxGeometry width="80" relative="1" as="geometry">
            <mxPoint x="169.5" y="370" as="sourcePoint" />
            <mxPoint x="449.5" y="370" as="targetPoint" />
            <Array as="points">
              <mxPoint x="430" y="370" />
            </Array>
          </mxGeometry>
        </mxCell>
        <mxCell id="Gz4G_NNeVK80VPYpn5j1-23" value="&lt;span style=&quot;text-align: left&quot;&gt;createTrackInfoBuilder().setSourceType(VIDEO_CAMERA)&lt;/span&gt;&lt;span style=&quot;text-align: left&quot;&gt;.build()&lt;/span&gt;" style="html=1;verticalAlign=bottom;endArrow=block;exitX=0.51;exitY=0.223;exitDx=0;exitDy=0;exitPerimeter=0;strokeColor=#457B9D;fontColor=#1D3557;labelBackgroundColor=#F1FAEE;" edge="1" parent="1">
          <mxGeometry width="80" relative="1" as="geometry">
            <mxPoint x="171" y="394.15" as="sourcePoint" />
            <mxPoint x="449.5" y="394.15" as="targetPoint" />
            <Array as="points" />
          </mxGeometry>
        </mxCell>
        <mxCell id="Gz4G_NNeVK80VPYpn5j1-24" value="加入房间" style="whiteSpace=wrap;html=1;fillColor=#A8DADC;strokeColor=#457B9D;fontColor=#1D3557;" vertex="1" parent="1">
          <mxGeometry x="40" y="230" width="100" height="60" as="geometry" />
        </mxCell>
        <mxCell id="Gz4G_NNeVK80VPYpn5j1-25" value="onRoomStateChanged(QNRoomState)" style="html=1;verticalAlign=bottom;endArrow=open;dashed=1;endSize=8;exitX=-0.3;exitY=0.988;exitDx=0;exitDy=0;exitPerimeter=0;entryX=1;entryY=1;entryDx=0;entryDy=0;entryPerimeter=0;strokeColor=#457B9D;fontColor=#1D3557;labelBackgroundColor=#F1FAEE;" edge="1" parent="1" source="Gz4G_NNeVK80VPYpn5j1-10" target="Gz4G_NNeVK80VPYpn5j1-4">
          <mxGeometry relative="1" as="geometry">
            <mxPoint x="440" y="297" as="sourcePoint" />
            <mxPoint x="210" y="297" as="targetPoint" />
          </mxGeometry>
        </mxCell>
        <mxCell id="Gz4G_NNeVK80VPYpn5j1-26" value="发布音视频到房间" style="whiteSpace=wrap;html=1;fillColor=#A8DADC;strokeColor=#457B9D;fontColor=#1D3557;" vertex="1" parent="1">
          <mxGeometry x="40" y="480" width="100" height="80" as="geometry" />
        </mxCell>
        <mxCell id="Gz4G_NNeVK80VPYpn5j1-27" value="其他用户加入房间" style="html=1;verticalAlign=bottom;endArrow=open;dashed=1;endSize=8;exitX=0.48;exitY=0.553;exitDx=0;exitDy=0;exitPerimeter=0;strokeColor=#457B9D;fontColor=#1D3557;labelBackgroundColor=#F1FAEE;" edge="1" parent="1" source="Gz4G_NNeVK80VPYpn5j1-14" target="Gz4G_NNeVK80VPYpn5j1-8">
          <mxGeometry relative="1" as="geometry">
            <mxPoint x="720" y="620" as="sourcePoint" />
            <mxPoint x="440" y="620" as="targetPoint" />
          </mxGeometry>
        </mxCell>
        <mxCell id="Gz4G_NNeVK80VPYpn5j1-28" value="订阅其他用户的音视频并观看" style="whiteSpace=wrap;html=1;fillColor=#A8DADC;strokeColor=#457B9D;fontColor=#1D3557;" vertex="1" parent="1">
          <mxGeometry x="40" y="620" width="100" height="260" as="geometry" />
        </mxCell>
        <mxCell id="Gz4G_NNeVK80VPYpn5j1-29" value="onRemoteUserJoined(userId, userData)" style="html=1;verticalAlign=bottom;endArrow=open;dashed=1;endSize=8;exitX=0.48;exitY=0.575;exitDx=0;exitDy=0;exitPerimeter=0;strokeColor=#457B9D;fontColor=#1D3557;labelBackgroundColor=#F1FAEE;" edge="1" parent="1" source="Gz4G_NNeVK80VPYpn5j1-8" target="Gz4G_NNeVK80VPYpn5j1-1">
          <mxGeometry relative="1" as="geometry">
            <mxPoint x="450" y="580" as="sourcePoint" />
            <mxPoint x="370" y="580" as="targetPoint" />
          </mxGeometry>
        </mxCell>
        <mxCell id="Gz4G_NNeVK80VPYpn5j1-30" value="其他用户发布音视频" style="html=1;verticalAlign=bottom;endArrow=open;dashed=1;endSize=8;exitX=0.5;exitY=0.599;exitDx=0;exitDy=0;exitPerimeter=0;strokeColor=#457B9D;fontColor=#1D3557;labelBackgroundColor=#F1FAEE;" edge="1" parent="1" source="Gz4G_NNeVK80VPYpn5j1-14" target="Gz4G_NNeVK80VPYpn5j1-8">
          <mxGeometry relative="1" as="geometry">
            <mxPoint x="720" y="670" as="sourcePoint" />
            <mxPoint x="640" y="670" as="targetPoint" />
          </mxGeometry>
        </mxCell>
        <mxCell id="Gz4G_NNeVK80VPYpn5j1-31" value="onRemotePublished(userId, Tracks)" style="html=1;verticalAlign=bottom;endArrow=open;dashed=1;endSize=8;strokeColor=#457B9D;fontColor=#1D3557;labelBackgroundColor=#F1FAEE;" edge="1" parent="1" target="Gz4G_NNeVK80VPYpn5j1-1">
          <mxGeometry relative="1" as="geometry">
            <mxPoint x="447" y="710" as="sourcePoint" />
            <mxPoint x="370" y="700" as="targetPoint" />
          </mxGeometry>
        </mxCell>
        <mxCell id="Gz4G_NNeVK80VPYpn5j1-32" value="" style="line;strokeWidth=1;fillColor=none;align=left;verticalAlign=middle;spacingTop=-1;spacingLeft=3;spacingRight=3;rotatable=0;labelPosition=right;points=[];portConstraint=eastwest;strokeColor=#457B9D;fontColor=#1D3557;labelBackgroundColor=#F1FAEE;" vertex="1" parent="1">
          <mxGeometry x="90" y="1000" width="750" height="8" as="geometry" />
        </mxCell>
        <mxCell id="Gz4G_NNeVK80VPYpn5j1-33" value="setCapturePreviewWindow(QNSurfaceVIew)" style="html=1;verticalAlign=bottom;endArrow=block;exitX=0.51;exitY=0.245;exitDx=0;exitDy=0;exitPerimeter=0;strokeColor=#457B9D;fontColor=#1D3557;labelBackgroundColor=#F1FAEE;" edge="1" parent="1">
          <mxGeometry width="80" relative="1" as="geometry">
            <mxPoint x="171" y="417.25" as="sourcePoint" />
            <mxPoint x="449.5" y="417.25" as="targetPoint" />
          </mxGeometry>
        </mxCell>
        <mxCell id="Gz4G_NNeVK80VPYpn5j1-34" value="joinRoom(RoomToken)" style="html=1;verticalAlign=bottom;endArrow=block;exitX=1.1;exitY=0.025;exitDx=0;exitDy=0;exitPerimeter=0;strokeColor=#457B9D;fontColor=#1D3557;labelBackgroundColor=#F1FAEE;" edge="1" parent="1" source="Gz4G_NNeVK80VPYpn5j1-4">
          <mxGeometry width="80" relative="1" as="geometry">
            <mxPoint x="180" y="241" as="sourcePoint" />
            <mxPoint x="442" y="222" as="targetPoint" />
            <Array as="points" />
          </mxGeometry>
        </mxCell>
        <mxCell id="Gz4G_NNeVK80VPYpn5j1-35" value="请求加入房间" style="html=1;verticalAlign=bottom;endArrow=block;exitX=0.9;exitY=0.125;exitDx=0;exitDy=0;exitPerimeter=0;entryX=0;entryY=0.02;entryDx=0;entryDy=0;entryPerimeter=0;strokeColor=#457B9D;fontColor=#1D3557;labelBackgroundColor=#F1FAEE;" edge="1" parent="1" source="Gz4G_NNeVK80VPYpn5j1-10" target="Gz4G_NNeVK80VPYpn5j1-15">
          <mxGeometry width="80" relative="1" as="geometry">
            <mxPoint x="450" y="210" as="sourcePoint" />
            <mxPoint x="530" y="210" as="targetPoint" />
          </mxGeometry>
        </mxCell>
        <mxCell id="Gz4G_NNeVK80VPYpn5j1-36" value="setRenderWindow(QNTrackInfo, QNSurfaceView)" style="html=1;verticalAlign=bottom;endArrow=block;exitX=0.5;exitY=0.78;exitDx=0;exitDy=0;exitPerimeter=0;strokeColor=#457B9D;fontColor=#1D3557;labelBackgroundColor=#F1FAEE;" edge="1" parent="1" source="Gz4G_NNeVK80VPYpn5j1-1" target="Gz4G_NNeVK80VPYpn5j1-8">
          <mxGeometry width="80" relative="1" as="geometry">
            <mxPoint x="170" y="820" as="sourcePoint" />
            <mxPoint x="250" y="820" as="targetPoint" />
          </mxGeometry>
        </mxCell>
        <mxCell id="Gz4G_NNeVK80VPYpn5j1-37" value="离开房间" style="whiteSpace=wrap;html=1;fillColor=#A8DADC;strokeColor=#457B9D;fontColor=#1D3557;" vertex="1" parent="1">
          <mxGeometry x="40" y="920" width="100" height="60" as="geometry" />
        </mxCell>
        <mxCell id="Gz4G_NNeVK80VPYpn5j1-38" value="初始化&lt;br&gt;QNRTCEngine" style="whiteSpace=wrap;html=1;fillColor=#A8DADC;strokeColor=#457B9D;fontColor=#1D3557;" vertex="1" parent="1">
          <mxGeometry x="40" y="1030" width="100" height="40" as="geometry" />
        </mxCell>
        <mxCell id="Gz4G_NNeVK80VPYpn5j1-39" value="return" style="html=1;verticalAlign=bottom;endArrow=open;dashed=1;endSize=8;strokeColor=#457B9D;fontColor=#1D3557;labelBackgroundColor=#F1FAEE;" edge="1" parent="1">
          <mxGeometry relative="1" as="geometry">
            <mxPoint x="710" y="280" as="sourcePoint" />
            <mxPoint x="450" y="280" as="targetPoint" />
          </mxGeometry>
        </mxCell>
        <mxCell id="Gz4G_NNeVK80VPYpn5j1-40" value="publishTracks(Tracks)" style="html=1;verticalAlign=bottom;endArrow=block;entryX=0;entryY=0;exitX=1.3;exitY=0;exitDx=0;exitDy=0;exitPerimeter=0;strokeColor=#457B9D;fontColor=#1D3557;labelBackgroundColor=#F1FAEE;" edge="1" parent="1" source="Gz4G_NNeVK80VPYpn5j1-5" target="Gz4G_NNeVK80VPYpn5j1-11">
          <mxGeometry relative="1" as="geometry">
            <mxPoint x="375" y="480" as="sourcePoint" />
          </mxGeometry>
        </mxCell>
        <mxCell id="Gz4G_NNeVK80VPYpn5j1-41" value="onLocalPublished(Tracks)" style="html=1;verticalAlign=bottom;endArrow=open;dashed=1;endSize=8;exitX=0;exitY=0.95;entryX=1.1;entryY=0.963;entryDx=0;entryDy=0;entryPerimeter=0;strokeColor=#457B9D;fontColor=#1D3557;labelBackgroundColor=#F1FAEE;" edge="1" parent="1" source="Gz4G_NNeVK80VPYpn5j1-11" target="Gz4G_NNeVK80VPYpn5j1-5">
          <mxGeometry relative="1" as="geometry">
            <mxPoint x="171" y="550" as="targetPoint" />
          </mxGeometry>
        </mxCell>
        <mxCell id="Gz4G_NNeVK80VPYpn5j1-42" value="请求发布音视频" style="html=1;verticalAlign=bottom;endArrow=block;entryX=0;entryY=0;exitX=0.9;exitY=0.125;exitDx=0;exitDy=0;exitPerimeter=0;strokeColor=#457B9D;fontColor=#1D3557;labelBackgroundColor=#F1FAEE;" edge="1" parent="1" source="Gz4G_NNeVK80VPYpn5j1-11" target="Gz4G_NNeVK80VPYpn5j1-16">
          <mxGeometry relative="1" as="geometry">
            <mxPoint x="645" y="490" as="sourcePoint" />
          </mxGeometry>
        </mxCell>
        <mxCell id="Gz4G_NNeVK80VPYpn5j1-43" value="return" style="html=1;verticalAlign=bottom;endArrow=open;dashed=1;endSize=8;entryX=1;entryY=0.75;entryDx=0;entryDy=0;entryPerimeter=0;strokeColor=#457B9D;fontColor=#1D3557;labelBackgroundColor=#F1FAEE;" edge="1" parent="1" source="Gz4G_NNeVK80VPYpn5j1-16" target="Gz4G_NNeVK80VPYpn5j1-11">
          <mxGeometry relative="1" as="geometry">
            <mxPoint x="460" y="540" as="targetPoint" />
          </mxGeometry>
        </mxCell>
        <mxCell id="Gz4G_NNeVK80VPYpn5j1-44" value="subscribeTracks(Tracks)" style="html=1;verticalAlign=bottom;endArrow=block;entryX=0;entryY=0;strokeColor=#457B9D;fontColor=#1D3557;labelBackgroundColor=#F1FAEE;" edge="1" parent="1" target="Gz4G_NNeVK80VPYpn5j1-12">
          <mxGeometry relative="1" as="geometry">
            <mxPoint x="174" y="750" as="sourcePoint" />
          </mxGeometry>
        </mxCell>
        <mxCell id="Gz4G_NNeVK80VPYpn5j1-45" value="onSubscribed(userId, Tracks)" style="html=1;verticalAlign=bottom;endArrow=open;dashed=1;endSize=8;exitX=0;exitY=0.95;entryX=1;entryY=0.988;entryDx=0;entryDy=0;entryPerimeter=0;strokeColor=#457B9D;fontColor=#1D3557;labelBackgroundColor=#F1FAEE;" edge="1" parent="1" source="Gz4G_NNeVK80VPYpn5j1-12" target="Gz4G_NNeVK80VPYpn5j1-6">
          <mxGeometry relative="1" as="geometry">
            <mxPoint x="375" y="816" as="targetPoint" />
          </mxGeometry>
        </mxCell>
        <mxCell id="Gz4G_NNeVK80VPYpn5j1-46" value="订阅 Track 请求" style="html=1;verticalAlign=bottom;endArrow=block;entryX=0;entryY=0;strokeColor=#457B9D;fontColor=#1D3557;labelBackgroundColor=#F1FAEE;" edge="1" parent="1" target="Gz4G_NNeVK80VPYpn5j1-17">
          <mxGeometry relative="1" as="geometry">
            <mxPoint x="456" y="760" as="sourcePoint" />
          </mxGeometry>
        </mxCell>
        <mxCell id="Gz4G_NNeVK80VPYpn5j1-47" value="return" style="html=1;verticalAlign=bottom;endArrow=open;dashed=1;endSize=8;entryX=1.2;entryY=0.75;entryDx=0;entryDy=0;entryPerimeter=0;strokeColor=#457B9D;fontColor=#1D3557;labelBackgroundColor=#F1FAEE;" edge="1" parent="1" source="Gz4G_NNeVK80VPYpn5j1-17" target="Gz4G_NNeVK80VPYpn5j1-12">
          <mxGeometry relative="1" as="geometry">
            <mxPoint x="645" y="836" as="targetPoint" />
          </mxGeometry>
        </mxCell>
        <mxCell id="Gz4G_NNeVK80VPYpn5j1-48" value="leaveRoom" style="html=1;verticalAlign=bottom;endArrow=block;entryX=0;entryY=0;strokeColor=#457B9D;fontColor=#1D3557;labelBackgroundColor=#F1FAEE;" edge="1" parent="1" source="Gz4G_NNeVK80VPYpn5j1-7" target="Gz4G_NNeVK80VPYpn5j1-13">
          <mxGeometry relative="1" as="geometry">
            <mxPoint x="375" y="910" as="sourcePoint" />
          </mxGeometry>
        </mxCell>
        <mxCell id="Gz4G_NNeVK80VPYpn5j1-49" value="onRoomStateChanged(QNRoomState)" style="html=1;verticalAlign=bottom;endArrow=open;dashed=1;endSize=8;exitX=0;exitY=0.95;strokeColor=#457B9D;fontColor=#1D3557;labelBackgroundColor=#F1FAEE;" edge="1" parent="1" source="Gz4G_NNeVK80VPYpn5j1-13">
          <mxGeometry relative="1" as="geometry">
            <mxPoint x="175" y="985" as="targetPoint" />
          </mxGeometry>
        </mxCell>
        <mxCell id="Gz4G_NNeVK80VPYpn5j1-50" value="离开房间请求" style="html=1;verticalAlign=bottom;endArrow=block;entryX=0;entryY=0;exitX=0.9;exitY=0.263;exitDx=0;exitDy=0;exitPerimeter=0;strokeColor=#457B9D;fontColor=#1D3557;labelBackgroundColor=#F1FAEE;" edge="1" parent="1" source="Gz4G_NNeVK80VPYpn5j1-13" target="Gz4G_NNeVK80VPYpn5j1-18">
          <mxGeometry relative="1" as="geometry">
            <mxPoint x="645" y="940" as="sourcePoint" />
          </mxGeometry>
        </mxCell>
        <mxCell id="Gz4G_NNeVK80VPYpn5j1-51" value="return" style="html=1;verticalAlign=bottom;endArrow=open;dashed=1;endSize=8;exitX=0;exitY=0.95;entryX=0.9;entryY=0.6;entryDx=0;entryDy=0;entryPerimeter=0;strokeColor=#457B9D;fontColor=#1D3557;labelBackgroundColor=#F1FAEE;" edge="1" parent="1" source="Gz4G_NNeVK80VPYpn5j1-18" target="Gz4G_NNeVK80VPYpn5j1-13">
          <mxGeometry relative="1" as="geometry">
            <mxPoint x="460" y="959" as="targetPoint" />
          </mxGeometry>
        </mxCell>
      </root>
    </mxGraphModel>
  </diagram>
</mxfile>
